<svg width="0" height="0" class="hidden" baseProfile="full">
  <symbol fill="none" xmlns="http://www.w3.org/2000/svg" viewBox="0 0 24 24" id="icon-download">
    <path d="M20.625 6.75H15.75V1.875C15.75 1.77554 15.7105 1.68016 15.6402 1.60984C15.5698 1.53951 15.4745 1.5 15.375 1.5H4.875C4.77554 1.5 4.68016 1.53951 4.60984 1.60984C4.53951 1.68016 4.5 1.77554 4.5 1.875V12.375C4.5 12.4745 4.53951 12.5698 4.60984 12.6402C4.68016 12.7105 4.77554 12.75 4.875 12.75H15V18.75H4.875C4.77554 18.75 4.68016 18.7895 4.60984 18.8598C4.53951 18.9302 4.5 19.0255 4.5 19.125V22.125C4.5 22.2245 4.53951 22.3198 4.60984 22.3902C4.68016 22.4605 4.77554 22.5 4.875 22.5H20.625C20.7245 22.5 20.8198 22.4605 20.8902 22.3902C20.9605 22.3198 21 22.2245 21 22.125V7.125C21 7.02554 20.9605 6.93016 20.8902 6.85983C20.8198 6.78951 20.7245 6.75 20.625 6.75Z" fill="#EEEEEE"></path>
    <path d="M15.375 12H3.375C3.16789 12 3 12.1679 3 12.375V19.125C3 19.3321 3.16789 19.5 3.375 19.5H15.375C15.5821 19.5 15.75 19.3321 15.75 19.125V12.375C15.75 12.1679 15.5821 12 15.375 12Z" fill="#66BB6A"></path>
    <path d="M20.8913 6.85898L15.6413 1.60898C15.5888 1.55609 15.5218 1.52002 15.4488 1.50537C15.3757 1.49072 15.3 1.49815 15.2312 1.52671C15.1624 1.55528 15.1037 1.60368 15.0625 1.66575C15.0213 1.72782 14.9996 1.80074 15 1.87523V7.12523C15 7.22468 15.0395 7.32007 15.1098 7.39039C15.1802 7.46072 15.2756 7.50023 15.375 7.50023H20.625C20.6995 7.50066 20.7724 7.4789 20.8345 7.43773C20.8966 7.39655 20.945 7.33782 20.9735 7.26903C21.0021 7.20024 21.0095 7.1245 20.9949 7.05147C20.9802 6.97844 20.9441 6.91143 20.8913 6.85898Z" fill="#E0E0E0"></path>
    <path d="M5.73438 17.2503L6.75063 15.6715L5.80562 14.2503H6.53313L7.09563 15.1465L7.63938 14.2503H8.34438L7.45188 15.6528L8.49813 17.2503H7.74813L7.08813 16.1478L6.43563 17.2503H5.73438ZM8.86938 17.2503V14.2503H9.50313V16.6803H10.5006V17.2503H8.86938ZM10.7444 16.3578H11.3706C11.3968 16.4819 11.468 16.5919 11.5705 16.6667C11.6729 16.7415 11.7994 16.7757 11.9256 16.7628C12.043 16.7688 12.159 16.7358 12.2556 16.669C12.2951 16.6404 12.3271 16.6025 12.3486 16.5588C12.3702 16.515 12.3807 16.4666 12.3794 16.4178C12.3829 16.353 12.3645 16.2888 12.327 16.2357C12.2896 16.1827 12.2354 16.1438 12.1731 16.1253C12.1456 16.1253 12.0206 16.0878 11.7981 16.0128C11.5628 15.9623 11.3373 15.8736 11.1306 15.7503C11.0309 15.6776 10.9506 15.5813 10.8969 15.4701C10.8433 15.3589 10.8179 15.2362 10.8231 15.1128C10.818 14.9877 10.8406 14.863 10.8892 14.7476C10.9378 14.6323 11.0113 14.529 11.1044 14.4453C11.313 14.2687 11.5814 14.1788 11.8544 14.194C12.1236 14.1838 12.3882 14.2658 12.6044 14.4265C12.6989 14.4956 12.776 14.5859 12.8293 14.69C12.8827 14.7942 12.911 14.9095 12.9119 15.0265H12.2819C12.2619 14.9329 12.2069 14.8505 12.1281 14.7961C12.0494 14.7417 11.9527 14.7195 11.8581 14.734C11.7554 14.7291 11.654 14.7581 11.5694 14.8165C11.5348 14.8419 11.5068 14.8753 11.4879 14.9138C11.4689 14.9524 11.4596 14.9949 11.4606 15.0378C11.4579 15.0855 11.4692 15.133 11.4932 15.1743C11.5172 15.2157 11.5528 15.2491 11.5956 15.2703C11.7461 15.3332 11.9034 15.3785 12.0644 15.4053C12.2726 15.4402 12.4732 15.5112 12.6569 15.6153C12.7764 15.6917 12.8738 15.7979 12.9396 15.9236C13.0054 16.0492 13.0372 16.1898 13.0319 16.3315C13.0381 16.4897 13.0021 16.6467 12.9277 16.7864C12.8532 16.9261 12.7429 17.0435 12.6081 17.1265C12.3958 17.2502 12.1523 17.3101 11.9069 17.299C11.7208 17.3155 11.5336 17.2854 11.362 17.2115C11.1905 17.1375 11.0401 17.0219 10.9244 16.8753C10.8212 16.721 10.7592 16.5428 10.7444 16.3578Z" fill="white"></path>
  </symbol>

  <symbol fill="none" xmlns="http://www.w3.org/2000/svg" viewBox="0 0 20 14" id="icon-next">
    <path d="M12.43 13.8201C12.24 13.8201 12.05 13.7501 11.9 13.6001C11.61 13.3101 11.61 12.8301 11.9 12.5401L17.44 7.00012L11.9 1.46012C11.61 1.17012 11.61 0.690117 11.9 0.400117C12.19 0.110117 12.67 0.110117 12.96 0.400117L19.03 6.47012C19.32 6.76012 19.32 7.24012 19.03 7.53012L12.96 13.6001C12.81 13.7501 12.62 13.8201 12.43 13.8201Z" fill="white"></path>
    <path d="M18.33 7.75H1.5C1.09 7.75 0.75 7.41 0.75 7C0.75 6.59 1.09 6.25 1.5 6.25H18.33C18.74 6.25 19.08 6.59 19.08 7C19.08 7.41 18.74 7.75 18.33 7.75Z" fill="white"></path>
  </symbol>

  <symbol xmlns="http://www.w3.org/2000/svg" viewBox="0 0 12 8" id="icon-dropdown">
    <path d="M11.616 1.707 5.91 7.414.202 1.707 1.616.293 5.91 4.586 10.202.293l1.414 1.414z"></path>
  </symbol>

  <symbol xmlns="http://www.w3.org/2000/svg" viewBox="0 0 24 24" id="icon-map">
    <path d="M20.38 21.13a.75.75 0 0 1-.53-.22l-6.38-6.38a.754.754 0 0 1 0-1.06l7.73-7.73c.19-.19.48-.26.74-.19.26.08.46.29.52.55.19.85.29 1.8.29 2.9v6c0 2.77-.58 4.64-1.84 5.91-.14.14-.35.17-.53.22zM15.06 14l5.26 5.26c.63-.97.93-2.35.93-4.26V9c0-.41-.01-.79-.04-1.15L15.06 14z"></path>
    <path d="M6.27 22.48c-.06 0-.11-.01-.17-.02-3.31-.76-4.85-3.13-4.85-7.46V9c0-5.43 2.32-7.75 7.75-7.75h6c4.33 0 6.7 1.54 7.46 4.85.06.25-.02.52-.2.7L6.8 22.26a.75.75 0 0 1-.53.22zM9 2.75C4.39 2.75 2.75 4.39 2.75 9v6c0 3.47.96 5.21 3.29 5.9L20.89 6.05c-.68-2.33-2.43-3.29-5.9-3.29H9v-.01z"></path>
    <path d="M15 22.75H9c-1.1 0-2.04-.09-2.9-.29a.728.728 0 0 1-.55-.52c-.08-.26 0-.54.19-.74l7.73-7.73c.29-.29.77-.29 1.06 0l6.38 6.38a.75.75 0 0 1 0 1.06c-1.27 1.26-3.14 1.84-5.91 1.84zm-7.15-1.54c.36.03.74.04 1.15.04h6c1.92 0 3.29-.3 4.26-.93L14 15.06l-6.15 6.15zM9.12 13.31c-.63 0-1.26-.23-1.76-.7-1.59-1.51-2.23-3.17-1.85-4.79.38-1.66 1.83-2.78 3.61-2.78 1.78 0 3.23 1.12 3.61 2.78.37 1.63-.27 3.28-1.86 4.79-.49.46-1.12.7-1.75.7zM6.97 8.15c-.32 1.36.6 2.58 1.43 3.37.41.39 1.04.39 1.44 0 .82-.78 1.74-2 1.43-3.37C11 6.96 9.94 6.53 9.12 6.53c-.82 0-1.87.43-2.15 1.62z"></path>
    <path d="M9.15 9.49c-.55 0-1-.45-1-1s.44-1 1-1h.01c.55 0 1 .45 1 1s-.46 1-1.01 1z"></path>
  </symbol>

  <symbol xmlns="http://www.w3.org/2000/svg" viewBox="0 0 24 24" id="icon-clock">
    <path d="M12 22.75C6.07 22.75 1.25 17.93 1.25 12S6.07 1.25 12 1.25 22.75 6.07 22.75 12 17.93 22.75 12 22.75zm0-20C6.9 2.75 2.75 6.9 2.75 12S6.9 21.25 12 21.25s9.25-4.15 9.25-9.25S17.1 2.75 12 2.75z"></path>
    <path d="M15.71 15.93a.67.67 0 0 1-.38-.11l-3.1-1.85c-.77-.46-1.34-1.47-1.34-2.36v-4.1c0-.41.34-.75.75-.75s.75.34.75.75v4.1c0 .36.3.89.61 1.07l3.1 1.85c.36.21.47.67.26 1.03a.77.77 0 0 1-.65.37z"></path>
  </symbol>

  <symbol xmlns="http://www.w3.org/2000/svg" viewBox="0 0 24 25" id="icon-call">
    <path d="M17.45 23.25c-1.13 0-2.32-.27-3.55-.79-1.2-.51-2.41-1.21-3.59-2.06-1.17-.86-2.3-1.82-3.37-2.87-1.06-1.07-2.02-2.2-2.87-3.36-.86-1.2-1.55-2.4-2.04-3.56-.52-1.24-.78-2.44-.78-3.57 0-.78.14-1.52.41-2.21.28-.71.73-1.37 1.34-1.94.77-.76 1.65-1.14 2.59-1.14.39 0 .79.09 1.13.25.39.18.72.45.96.81L10 6.08c.21.29.37.57.48.85.13.3.2.6.2.89 0 .38-.11.75-.32 1.1a4 4 0 0 1-.67.85l-.68.71c.01.03.02.05.03.07.12.21.36.57.82 1.11.49.56.95 1.07 1.41 1.54.59.58 1.08 1.04 1.54 1.42.57.48.94.72 1.16.83l-.02.05.73-.72c.31-.31.61-.54.9-.69.55-.34 1.25-.4 1.95-.11.26.11.54.26.84.47l3.32 2.36c.37.25.64.57.8.95.15.38.22.73.22 1.08 0 .48-.11.96-.32 1.41-.21.45-.47.84-.8 1.2-.57.63-1.19 1.08-1.91 1.37-.69.28-1.44.43-2.23.43zm-11.86-20c-.55 0-1.06.24-1.55.72-.46.43-.78.9-.98 1.41-.21.52-.31 1.07-.31 1.66 0 .93.22 1.94.66 2.98.45 1.06 1.08 2.16 1.88 3.26.8 1.1 1.71 2.17 2.71 3.18 1 .99 2.08 1.91 3.19 2.72 1.08.79 2.19 1.43 3.29 1.89 1.71.73 3.31.9 4.63.35.51-.21.96-.53 1.37-.99.23-.25.41-.52.56-.84.12-.25.18-.51.18-.77 0-.16-.03-.32-.11-.5a.757.757 0 0 0-.28-.3l-3.32-2.36c-.2-.14-.38-.24-.55-.31-.22-.09-.31-.18-.65.03-.2.1-.38.25-.58.45l-.76.75c-.39.38-.99.47-1.45.3l-.27-.12c-.41-.22-.89-.56-1.42-1.01-.48-.41-1-.89-1.63-1.51-.49-.5-.98-1.03-1.49-1.62-.47-.55-.81-1.02-1.02-1.41l-.12-.3c-.06-.23-.08-.36-.08-.5 0-.36.13-.68.38-.93l.75-.78c.2-.2.35-.39.45-.56.08-.13.11-.24.11-.34 0-.08-.03-.2-.08-.32-.07-.16-.18-.34-.32-.53L6.46 3.67a.922.922 0 0 0-.37-.31c-.16-.07-.33-.11-.5-.11zm8.36 12.26-.16.68.27-.7c-.05-.01-.09 0-.11.02z"></path>
  </symbol>

  <symbol xmlns="http://www.w3.org/2000/svg" viewBox="0 0 24 24" id="icon-shopping-cart">
    <path d="M18.19 17.75H7.54c-.99 0-1.94-.42-2.61-1.15A3.573 3.573 0 0 1 4 13.9l.83-9.96c.03-.31-.08-.61-.29-.84-.21-.23-.5-.35-.81-.35H2c-.41 0-.75-.34-.75-.75s.34-.75.75-.75h1.74c.73 0 1.42.31 1.91.84.27.3.47.65.58 1.04h12.49c1.01 0 1.94.4 2.62 1.12.67.73 1.01 1.68.93 2.69l-.54 7.5c-.11 1.83-1.71 3.31-3.54 3.31zM6.28 4.62l-.78 9.4c-.05.58.14 1.13.53 1.56.39.43.93.66 1.51.66h10.65c1.04 0 1.98-.88 2.06-1.92l.54-7.5a2.04 2.04 0 0 0-2.06-2.21H6.28v.01zM16.25 22.75c-1.1 0-2-.9-2-2s.9-2 2-2 2 .9 2 2-.9 2-2 2zm0-2.5c-.28 0-.5.22-.5.5s.22.5.5.5.5-.22.5-.5-.22-.5-.5-.5zM8.25 22.75c-1.1 0-2-.9-2-2s.9-2 2-2 2 .9 2 2-.9 2-2 2zm0-2.5c-.28 0-.5.22-.5.5s.22.5.5.5.5-.22.5-.5-.22-.5-.5-.5z"></path>
    <path d="M21 8.75H9c-.41 0-.75-.34-.75-.75s.34-.75.75-.75h12c.41 0 .75.34.75.75s-.34.75-.75.75z"></path>
  </symbol>

  <symbol xmlns="http://www.w3.org/2000/svg" viewBox="0 0 18 18" id="icon-wa">
    <path d="M12.833 10.667c-.166-.084-1.25-.584-1.416-.667-.167-.083-.334-.083-.5.083-.167.167-.5.667-.667.834-.083.166-.25.166-.417.083a6.812 6.812 0 0 1-1.666-1A9.593 9.593 0 0 1 7 8.583c-.083-.166 0-.333.083-.416.084-.084.167-.25.334-.334.083-.083.166-.25.166-.333a.253.253 0 0 0 0-.333c-.083-.084-.5-1.084-.666-1.5-.084-.584-.25-.584-.417-.584h-.417c-.166 0-.416.167-.5.25-.5.5-.75 1.084-.75 1.75.084.75.334 1.5.834 2.167.916 1.333 2.083 2.417 3.5 3.083.416.167.75.334 1.166.417.417.167.834.167 1.334.083.583-.083 1.083-.5 1.416-1 .167-.333.167-.666.084-1l-.334-.166zm2.084-7.584a8.299 8.299 0 0 0-11.75 0C.5 5.75 0 9.833 1.833 13.083l-1.166 4.25 4.416-1.166c1.25.666 2.584 1 3.917 1a8.216 8.216 0 0 0 8.25-8.25c.083-2.167-.833-4.25-2.333-5.834zm-2.25 11.667c-1.084.667-2.334 1.083-3.667 1.083-1.25 0-2.417-.333-3.5-.916l-.25-.167-2.583.667.666-2.5-.166-.25c-2-3.334-1-7.5 2.25-9.584 3.25-2.083 7.416-1 9.416 2.167 2 3.25 1.084 7.5-2.166 9.5z"></path>
  </symbol>
  
  <symbol xmlns="http://www.w3.org/2000/svg" viewBox="0 0 20 20" id="icon-tg">
    <g clip-path="url(#a)">
      <path d="M10 20C4.5 20 0 15.5 0 10S4.5 0 10 0s10 4.5 10 10-4.5 10-10 10zm0-19c-4.95 0-9 4.05-9 9s4.05 9 9 9 9-4.05 9-9-4.05-9-9-9z"></path>
      <path fill-rule="evenodd" clip-rule="evenodd" d="M8.35 12.05 13 7.85c.2-.2-.05-.25-.3-.1L7 11.35l-2.45-.75c-.55-.15-.55-.55.1-.8l9.65-3.7c.45-.2.85.1.7.8l-1.65 7.75c-.1.55-.45.7-.9.45l-2.5-1.85-1.2 1.15c-.15.15-.35.15-.35 0l-.05-2.35z"></path>
    </g>
    <defs>
      <clipPath id="a">
        <path fill="#fff" d="M0 0h20v20H0z"></path>
      </clipPath>
    </defs>
  </symbol>
</svg>